<svg width="26.87" height="23.2" xmlns="http://www.w3.org/2000/svg">

 <g>
  <title>Layer 1</title>
  <path id="svg_1" fill="#4372a7" d="m16.13,10.93c-0.1,-0.8 -0.5,-1.6 -1.1,-2.1l-10.3,-8.2c-1.3,-1 -3.1,-0.8 -4.1,0.5c-1,1.3 -0.8,3.1 0.5,4.1l7.5,6l-7.5,6c-1.3,1 -1.5,2.8 -0.5,4.1s2.8,1.5 4.1,0.5l10.3,-8.4c0.7,-0.6 1.1,-1.4 1.1,-2.3l0,-0.2z"/>
  <path id="svg_2" fill="#00c9db" d="m23.4,16.5l-8.9,0c-0.1,0 -0.3,0 -0.4,0.1l-6.7,5.3c-0.1,0.1 -0.1,0.2 0,0.3c0,0.1 0.1,0.1 0.2,0.1l15.9,0c1.6,0 3,-1.4 2.9,-3.1c-0.1,-1.6 -1.5,-2.7 -3,-2.7"/>
  <path id="svg_3" fill="#4372a7" d="m26.4,19.4c0,1.6 -1.3,2.9 -2.9,2.9s-2.9,-1.3 -2.9,-2.9s1.3,-2.9 2.9,-2.9s2.9,1.3 2.9,2.9"/>
 </g>
</svg>